# xmcd CD database file
#
# Track frame offsets:
#	150
#	11348
#	22878
#	36521
#	50419
#	69101
#	87183
#	109979
#	126000
#	142992
#	157491
#	173231
#	187947
#	211293
#	224550
#	243684
#	257930
#	274391
#
# Disc length: 3867 seconds
#
# Revision: 0
# Processed by: cddbd v1.5.2PL0 Copyright (c) Steve Scherf et al.
# Submitted via: CDex 1.70beta2
#
DISCID=0c0f1912
DTITLE=The New City Jazzmen And Penny Payne - Goig To Town
DYEAR=2002
DGENRE=Jazz
TTITLE0=Going To Town
TTITLE1=I Wish I Could Shimmy Like My Sister Kate
TTITLE2=Bourbon Street Parade
TTITLE3=Memphis Blues
TTITLE4=Woman Be Wise
TTITLE5=Dardanella
TTITLE6=Jelly Bean Blues
TTITLE7=I Will Always Be In Love With You
TTITLE8=Papa Dip
TTITLE9=Perdido Street Blues
TTITLE10=Make Me A Bullet On The Floor
TTITLE11=Big Bear Stamp
TTITLE12=Blue Turning Grey Over You
TTITLE13=Gatemouth
TTITLE14=Kitchen Man
TTITLE15=Savoy Blues
TTITLE16=Saratoga Swing
TTITLE17=Cushion Foot Stamp
EXTD=YEAR: 2002
EXTT0=
EXTT1=
EXTT2=
EXTT3=
EXTT4=
EXTT5=
EXTT6=
EXTT7=
EXTT8=
EXTT9=
EXTT10=
EXTT11=
EXTT12=
EXTT13=
EXTT14=
EXTT15=
EXTT16=
EXTT17=
PLAYORDER=
